<svg id="visual" viewBox="0 0 900 600" width="900" height="600" xmlns="http://www.w3.org/2000/svg" xmlns:xlink="http://www.w3.org/1999/xlink" version="1.1"><g stroke-width="1" stroke-linejoin="bevel"><path d="M454.4 335.3L450.6 391L467.6 350.3Z" fill="#0941b1" stroke="#0941b1"></path><path d="M454.4 335.3L382.2 370L450.6 391Z" fill="#0941b1" stroke="#0941b1"></path><path d="M382.2 370L381.4 389L450.6 391Z" fill="#001f3c" stroke="#001f3c"></path><path d="M381.4 389L473.6 445.7L450.6 391Z" fill="#002b5d" stroke="#002b5d"></path><path d="M450.6 391L535.8 341.3L467.6 350.3Z" fill="#00306e" stroke="#00306e"></path><path d="M473.6 445.7L535.8 341.3L450.6 391Z" fill="#003da1" stroke="#003da1"></path><path d="M467.6 350.3L535.8 341.3L454.4 335.3Z" fill="#0941b1" stroke="#0941b1"></path><path d="M321.2 285.7L382.2 370L454.4 335.3Z" fill="#00357f" stroke="#00357f"></path><path d="M321.2 285.7L319.2 325.3L382.2 370Z" fill="#003da1" stroke="#003da1"></path><path d="M382.2 370L309.9 374L381.4 389Z" fill="#003da1" stroke="#003da1"></path><path d="M319.2 325.3L309.9 374L382.2 370Z" fill="#1b44c2" stroke="#1b44c2"></path><path d="M381.4 389L408.4 502.7L473.6 445.7Z" fill="#00357f" stroke="#00357f"></path><path d="M447.6 230.7L430.4 230.7L454.4 335.3Z" fill="#00357f" stroke="#00357f"></path><path d="M546.8 271.7L447.6 230.7L454.4 335.3Z" fill="#001f3c" stroke="#001f3c"></path><path d="M514.6 219L448.4 228L447.6 230.7Z" fill="#002b5d" stroke="#002b5d"></path><path d="M447.6 230.7L448.4 228L430.4 230.7Z" fill="#00101c" stroke="#00101c"></path><path d="M430.4 230.7L321.2 285.7L454.4 335.3Z" fill="#00306e" stroke="#00306e"></path><path d="M319.2 325.3L255.9 347.3L309.9 374Z" fill="#00182b" stroke="#00182b"></path><path d="M535.8 341.3L546.8 271.7L454.4 335.3Z" fill="#1b44c2" stroke="#1b44c2"></path><path d="M327.2 456.7L408.4 502.7L381.4 389Z" fill="#0941b1" stroke="#0941b1"></path><path d="M309.9 374L327.2 456.7L381.4 389Z" fill="#00101c" stroke="#00101c"></path><path d="M588.1 455.7L583.8 405L473.6 445.7Z" fill="#002b5d" stroke="#002b5d"></path><path d="M473.6 445.7L583.8 405L535.8 341.3Z" fill="#001f3c" stroke="#001f3c"></path><path d="M535.8 341.3L602.1 297.7L546.8 271.7Z" fill="#0941b1" stroke="#0941b1"></path><path d="M359.2 512.3L403.4 513.3L408.4 502.7Z" fill="#003da1" stroke="#003da1"></path><path d="M408.4 502.7L513.6 517.3L473.6 445.7Z" fill="#00357f" stroke="#00357f"></path><path d="M546.8 271.7L514.6 219L447.6 230.7Z" fill="#001f3c" stroke="#001f3c"></path><path d="M327.2 456.7L359.2 512.3L408.4 502.7Z" fill="#002b5d" stroke="#002b5d"></path><path d="M591.8 526.3L513.6 517.3L527.8 600Z" fill="#003da1" stroke="#003da1"></path><path d="M403.4 513.3L513.6 517.3L408.4 502.7Z" fill="#00182b" stroke="#00182b"></path><path d="M623.1 343.3L602.1 297.7L535.8 341.3Z" fill="#003da1" stroke="#003da1"></path><path d="M546.8 271.7L594.1 228L514.6 219Z" fill="#003990" stroke="#003990"></path><path d="M513.6 517.3L588.1 455.7L473.6 445.7Z" fill="#0941b1" stroke="#0941b1"></path><path d="M583.8 405L623.1 343.3L535.8 341.3Z" fill="#003da1" stroke="#003da1"></path><path d="M321.2 285.7L255.9 347.3L319.2 325.3Z" fill="#0941b1" stroke="#0941b1"></path><path d="M309.9 374L202.7 390L327.2 456.7Z" fill="#003990" stroke="#003990"></path><path d="M327.2 456.7L291.9 508.3L359.2 512.3Z" fill="#002b5d" stroke="#002b5d"></path><path d="M430.4 230.7L307.2 233L321.2 285.7Z" fill="#0941b1" stroke="#0941b1"></path><path d="M321.2 285.7L267.9 235.7L255.9 347.3Z" fill="#001f3c" stroke="#001f3c"></path><path d="M387.4 166.3L307.2 233L430.4 230.7Z" fill="#00101c" stroke="#00101c"></path><path d="M461.6 161.3L430.4 230.7L448.4 228Z" fill="#00182b" stroke="#00182b"></path><path d="M651.1 403L623.1 343.3L583.8 405Z" fill="#003da1" stroke="#003da1"></path><path d="M307.2 233L302.9 234L321.2 285.7Z" fill="#002b5d" stroke="#002b5d"></path><path d="M570.8 186L461.6 161.3L514.6 219Z" fill="#1b44c2" stroke="#1b44c2"></path><path d="M514.6 219L461.6 161.3L448.4 228Z" fill="#00101c" stroke="#00101c"></path><path d="M313.2 158.3L267.9 235.7L302.9 234Z" fill="#1b44c2" stroke="#1b44c2"></path><path d="M513.6 517.3L582.8 504.7L588.1 455.7Z" fill="#00101c" stroke="#00101c"></path><path d="M588.1 455.7L651.1 403L583.8 405Z" fill="#0941b1" stroke="#0941b1"></path><path d="M461.6 161.3L387.4 166.3L430.4 230.7Z" fill="#00254d" stroke="#00254d"></path><path d="M696.3 258.7L594.1 228L602.1 297.7Z" fill="#001f3c" stroke="#001f3c"></path><path d="M602.1 297.7L594.1 228L546.8 271.7Z" fill="#00182b" stroke="#00182b"></path><path d="M238.9 499.7L291.9 508.3L327.2 456.7Z" fill="#001f3c" stroke="#001f3c"></path><path d="M591.8 526.3L586.1 508.3L582.8 504.7Z" fill="#0941b1" stroke="#0941b1"></path><path d="M582.8 504.7L586.1 508.3L588.1 455.7Z" fill="#1b44c2" stroke="#1b44c2"></path><path d="M313.2 158.3L302.9 234L307.2 233Z" fill="#002b5d" stroke="#002b5d"></path><path d="M302.9 234L267.9 235.7L321.2 285.7Z" fill="#00101c" stroke="#00101c"></path><path d="M668.3 512.3L651.1 403L588.1 455.7Z" fill="#001f3c" stroke="#001f3c"></path><path d="M623.1 343.3L704.3 327.3L602.1 297.7Z" fill="#003990" stroke="#003990"></path><path d="M594.1 228L570.8 186L514.6 219Z" fill="#00306e" stroke="#00306e"></path><path d="M513.6 517.3L591.8 526.3L582.8 504.7Z" fill="#003da1" stroke="#003da1"></path><path d="M586.1 508.3L668.3 512.3L588.1 455.7Z" fill="#00357f" stroke="#00357f"></path><path d="M451.6 600L513.6 517.3L403.4 513.3Z" fill="#003da1" stroke="#003da1"></path><path d="M451.6 600L403.4 513.3L401.4 600Z" fill="#0941b1" stroke="#0941b1"></path><path d="M205.7 220L238.7 239.7L241.9 142.3Z" fill="#00306e" stroke="#00306e"></path><path d="M267.9 235.7L238.7 239.7L255.9 347.3Z" fill="#002b5d" stroke="#002b5d"></path><path d="M186.7 346.3L202.7 390L255.9 347.3Z" fill="#001f3c" stroke="#001f3c"></path><path d="M255.9 347.3L202.7 390L309.9 374Z" fill="#1b44c2" stroke="#1b44c2"></path><path d="M401.4 600L403.4 513.3L366.2 600Z" fill="#00182b" stroke="#00182b"></path><path d="M387.4 166.3L313.2 158.3L307.2 233Z" fill="#00101c" stroke="#00101c"></path><path d="M336.2 88.7L313.2 158.3L387.4 166.3Z" fill="#00254d" stroke="#00254d"></path><path d="M366.2 600L403.4 513.3L359.2 512.3Z" fill="#003990" stroke="#003990"></path><path d="M202.7 390L238.9 499.7L327.2 456.7Z" fill="#002b5d" stroke="#002b5d"></path><path d="M291.9 508.3L366.2 600L359.2 512.3Z" fill="#003da1" stroke="#003da1"></path><path d="M243.9 600L366.2 600L291.9 508.3Z" fill="#00357f" stroke="#00357f"></path><path d="M238.7 239.7L186.7 346.3L255.9 347.3Z" fill="#0941b1" stroke="#0941b1"></path><path d="M202.7 390L182.7 455.7L238.9 499.7Z" fill="#003da1" stroke="#003da1"></path><path d="M451.6 600L527.8 600L513.6 517.3Z" fill="#001f3c" stroke="#001f3c"></path><path d="M727.5 446.7L692.3 396L651.1 403Z" fill="#1b44c2" stroke="#1b44c2"></path><path d="M651.1 403L692.3 396L623.1 343.3Z" fill="#00182b" stroke="#00182b"></path><path d="M594.1 228L674.3 195L570.8 186Z" fill="#003990" stroke="#003990"></path><path d="M692.3 396L704.3 327.3L623.1 343.3Z" fill="#0941b1" stroke="#0941b1"></path><path d="M164.5 399L182.7 455.7L202.7 390Z" fill="#1b44c2" stroke="#1b44c2"></path><path d="M238.9 499.7L243.9 600L291.9 508.3Z" fill="#003da1" stroke="#003da1"></path><path d="M241.9 142.3L238.7 239.7L267.9 235.7Z" fill="#001f3c" stroke="#001f3c"></path><path d="M238.7 239.7L134.5 273.7L186.7 346.3Z" fill="#0941b1" stroke="#0941b1"></path><path d="M650.1 600L668.3 512.3L591.8 526.3Z" fill="#003da1" stroke="#003da1"></path><path d="M591.8 526.3L668.3 512.3L586.1 508.3Z" fill="#001f3c" stroke="#001f3c"></path><path d="M186.7 346.3L164.5 399L202.7 390Z" fill="#001f3c" stroke="#001f3c"></path><path d="M113.5 310.3L164.5 399L186.7 346.3Z" fill="#00254d" stroke="#00254d"></path><path d="M704.3 327.3L696.3 258.7L602.1 297.7Z" fill="#0941b1" stroke="#0941b1"></path><path d="M508.6 59.7L440.4 81.7L461.6 161.3Z" fill="#001f3c" stroke="#001f3c"></path><path d="M461.6 161.3L440.4 81.7L387.4 166.3Z" fill="#002b5d" stroke="#002b5d"></path><path d="M313.2 158.3L241.9 142.3L267.9 235.7Z" fill="#003da1" stroke="#003da1"></path><path d="M552.8 91.7L461.6 161.3L570.8 186Z" fill="#001f3c" stroke="#001f3c"></path><path d="M696.3 258.7L674.3 195L594.1 228Z" fill="#00357f" stroke="#00357f"></path><path d="M440.4 81.7L336.2 88.7L387.4 166.3Z" fill="#003990" stroke="#003990"></path><path d="M580.8 104.3L552.8 91.7L570.8 186Z" fill="#002b5d" stroke="#002b5d"></path><path d="M627.1 115.3L580.8 104.3L570.8 186Z" fill="#001f3c" stroke="#001f3c"></path><path d="M336.2 88.7L241.9 142.3L313.2 158.3Z" fill="#003da1" stroke="#003da1"></path><path d="M668.3 512.3L727.5 446.7L651.1 403Z" fill="#00182b" stroke="#00182b"></path><path d="M692.3 396L770.5 352.3L704.3 327.3Z" fill="#1b44c2" stroke="#1b44c2"></path><path d="M704.3 327.3L736.5 250.7L696.3 258.7Z" fill="#00357f" stroke="#00357f"></path><path d="M732.5 568.3L705.3 505.7L668.3 512.3Z" fill="#001f3c" stroke="#001f3c"></path><path d="M668.3 512.3L705.3 505.7L727.5 446.7Z" fill="#0941b1" stroke="#0941b1"></path><path d="M230.7 600L243.9 600L238.9 499.7Z" fill="#00101c" stroke="#00101c"></path><path d="M674.3 195L627.1 115.3L570.8 186Z" fill="#00101c" stroke="#00101c"></path><path d="M554.8 0L508.6 59.7L552.8 91.7Z" fill="#001f3c" stroke="#001f3c"></path><path d="M476.6 0L508.6 59.7L554.8 0Z" fill="#1b44c2" stroke="#1b44c2"></path><path d="M552.8 91.7L508.6 59.7L461.6 161.3Z" fill="#00101c" stroke="#00101c"></path><path d="M440.4 81.7L402.4 0L336.2 88.7Z" fill="#00357f" stroke="#00357f"></path><path d="M182.7 455.7L184.7 544.3L238.9 499.7Z" fill="#00306e" stroke="#00306e"></path><path d="M109.5 512.3L184.7 544.3L182.7 455.7Z" fill="#002b5d" stroke="#002b5d"></path><path d="M236.9 76.7L190.7 170.3L241.9 142.3Z" fill="#00254d" stroke="#00254d"></path><path d="M241.9 142.3L190.7 170.3L205.7 220Z" fill="#0941b1" stroke="#0941b1"></path><path d="M205.7 220L134.5 273.7L238.7 239.7Z" fill="#00101c" stroke="#00101c"></path><path d="M184.7 544.3L230.7 600L238.9 499.7Z" fill="#0941b1" stroke="#0941b1"></path><path d="M131.5 217L134.5 273.7L205.7 220Z" fill="#003990" stroke="#003990"></path><path d="M164.5 399L108.5 490.7L182.7 455.7Z" fill="#0941b1" stroke="#0941b1"></path><path d="M770.5 352.3L736.5 250.7L704.3 327.3Z" fill="#003da1" stroke="#003da1"></path><path d="M696.3 258.7L736.5 250.7L674.3 195Z" fill="#003da1" stroke="#003da1"></path><path d="M674.3 195L691.3 127.3L627.1 115.3Z" fill="#002b5d" stroke="#002b5d"></path><path d="M527.8 600L650.1 600L591.8 526.3Z" fill="#0941b1" stroke="#0941b1"></path><path d="M90.2 228L113.5 310.3L134.5 273.7Z" fill="#1b44c2" stroke="#1b44c2"></path><path d="M134.5 273.7L113.5 310.3L186.7 346.3Z" fill="#003da1" stroke="#003da1"></path><path d="M795.5 391L770.5 352.3L692.3 396Z" fill="#002b5d" stroke="#002b5d"></path><path d="M795.5 391L692.3 396L727.5 446.7Z" fill="#00306e" stroke="#00306e"></path><path d="M650.1 600L677.3 600L668.3 512.3Z" fill="#003990" stroke="#003990"></path><path d="M840.8 467.7L795.5 391L727.5 446.7Z" fill="#00101c" stroke="#00101c"></path><path d="M190.7 170.3L131.5 217L205.7 220Z" fill="#00306e" stroke="#00306e"></path><path d="M790.5 181L691.3 127.3L674.3 195Z" fill="#1b44c2" stroke="#1b44c2"></path><path d="M621.1 42.7L552.8 91.7L580.8 104.3Z" fill="#0941b1" stroke="#0941b1"></path><path d="M336.2 88.7L236.9 76.7L241.9 142.3Z" fill="#00306e" stroke="#00306e"></path><path d="M190.7 170.3L133.5 168.3L131.5 217Z" fill="#00182b" stroke="#00182b"></path><path d="M234.7 42.7L236.9 76.7L283.9 0Z" fill="#003990" stroke="#003990"></path><path d="M66.2 409L108.5 490.7L164.5 399Z" fill="#1b44c2" stroke="#1b44c2"></path><path d="M184.7 544.3L147.5 600L230.7 600Z" fill="#001f3c" stroke="#001f3c"></path><path d="M840.8 467.7L727.5 446.7L705.3 505.7Z" fill="#00306e" stroke="#00306e"></path><path d="M770.5 352.3L845.8 270.7L736.5 250.7Z" fill="#001f3c" stroke="#001f3c"></path><path d="M790.5 181L727.3 93.7L691.3 127.3Z" fill="#001f3c" stroke="#001f3c"></path><path d="M677.3 600L732.5 568.3L668.3 512.3Z" fill="#00101c" stroke="#00101c"></path><path d="M795.5 391L799.8 369.3L770.5 352.3Z" fill="#00306e" stroke="#00306e"></path><path d="M98.5 93.7L133.5 168.3L190.7 170.3Z" fill="#00357f" stroke="#00357f"></path><path d="M131.5 217L90.2 228L134.5 273.7Z" fill="#00101c" stroke="#00101c"></path><path d="M108.5 490.7L109.5 512.3L182.7 455.7Z" fill="#00254d" stroke="#00254d"></path><path d="M476.6 0L440.4 81.7L508.6 59.7Z" fill="#0941b1" stroke="#0941b1"></path><path d="M476.6 0L402.4 0L440.4 81.7Z" fill="#00254d" stroke="#00254d"></path><path d="M621.1 42.7L580.8 104.3L627.1 115.3Z" fill="#00254d" stroke="#00254d"></path><path d="M691.3 127.3L621.1 42.7L627.1 115.3Z" fill="#00182b" stroke="#00182b"></path><path d="M133.5 168.3L90.2 228L131.5 217Z" fill="#003990" stroke="#003990"></path><path d="M113.5 310.3L66.2 409L164.5 399Z" fill="#003990" stroke="#003990"></path><path d="M108.5 490.7L50.2 503.3L109.5 512.3Z" fill="#00182b" stroke="#00182b"></path><path d="M38.2 339.3L66.2 409L113.5 310.3Z" fill="#00306e" stroke="#00306e"></path><path d="M109.5 512.3L147.5 600L184.7 544.3Z" fill="#003990" stroke="#003990"></path><path d="M402.4 0L327.2 0L336.2 88.7Z" fill="#00357f" stroke="#00357f"></path><path d="M236.9 76.7L98.5 93.7L190.7 170.3Z" fill="#003da1" stroke="#003da1"></path><path d="M283.9 0L236.9 76.7L336.2 88.7Z" fill="#0941b1" stroke="#0941b1"></path><path d="M621.1 42.7L554.8 0L552.8 91.7Z" fill="#00306e" stroke="#00306e"></path><path d="M677.3 600L744.5 600L732.5 568.3Z" fill="#003da1" stroke="#003da1"></path><path d="M803.8 566.3L840.8 467.7L705.3 505.7Z" fill="#1b44c2" stroke="#1b44c2"></path><path d="M621.1 42.7L590.1 0L554.8 0Z" fill="#002b5d" stroke="#002b5d"></path><path d="M698.3 0L590.1 0L621.1 42.7Z" fill="#00357f" stroke="#00357f"></path><path d="M790.5 181L674.3 195L736.5 250.7Z" fill="#00254d" stroke="#00254d"></path><path d="M691.3 127.3L727.3 93.7L621.1 42.7Z" fill="#00254d" stroke="#00254d"></path><path d="M327.2 0L283.9 0L336.2 88.7Z" fill="#1b44c2" stroke="#1b44c2"></path><path d="M845.8 270.7L790.5 181L736.5 250.7Z" fill="#00357f" stroke="#00357f"></path><path d="M66.2 409L45.2 427.7L108.5 490.7Z" fill="#003990" stroke="#003990"></path><path d="M109.5 512.3L61.2 600L147.5 600Z" fill="#0941b1" stroke="#0941b1"></path><path d="M0 416L45.2 427.7L66.2 409Z" fill="#00101c" stroke="#00101c"></path><path d="M50.2 227.7L38.2 339.3L113.5 310.3Z" fill="#00254d" stroke="#00254d"></path><path d="M72.2 120.3L50.2 227.7L90.2 228Z" fill="#00101c" stroke="#00101c"></path><path d="M90.2 228L50.2 227.7L113.5 310.3Z" fill="#00357f" stroke="#00357f"></path><path d="M72.2 120.3L90.2 228L133.5 168.3Z" fill="#1b44c2" stroke="#1b44c2"></path><path d="M0 484.7L50.2 503.3L45.2 427.7Z" fill="#002b5d" stroke="#002b5d"></path><path d="M45.2 427.7L50.2 503.3L108.5 490.7Z" fill="#00182b" stroke="#00182b"></path><path d="M795.5 391L867.8 380L799.8 369.3Z" fill="#00182b" stroke="#00182b"></path><path d="M799.8 369.3L845.8 270.7L770.5 352.3Z" fill="#00357f" stroke="#00357f"></path><path d="M803.8 566.3L705.3 505.7L732.5 568.3Z" fill="#002b5d" stroke="#002b5d"></path><path d="M867.8 380L845.8 270.7L799.8 369.3Z" fill="#0941b1" stroke="#0941b1"></path><path d="M744.5 600L803.8 566.3L732.5 568.3Z" fill="#001f3c" stroke="#001f3c"></path><path d="M825.8 168L774.5 97.3L790.5 181Z" fill="#003da1" stroke="#003da1"></path><path d="M790.5 181L774.5 97.3L727.3 93.7Z" fill="#00101c" stroke="#00101c"></path><path d="M727.3 93.7L698.3 0L621.1 42.7Z" fill="#00357f" stroke="#00357f"></path><path d="M774.5 97.3L767.5 86.7L727.3 93.7Z" fill="#00101c" stroke="#00101c"></path><path d="M840.8 467.7L867.8 380L795.5 391Z" fill="#0941b1" stroke="#0941b1"></path><path d="M845.8 270.7L825.8 168L790.5 181Z" fill="#00357f" stroke="#00357f"></path><path d="M774.5 97.3L815.8 73.7L767.5 86.7Z" fill="#003da1" stroke="#003da1"></path><path d="M846.8 148.3L825.8 168L900 202Z" fill="#00306e" stroke="#00306e"></path><path d="M167.7 0L236.9 76.7L234.7 42.7Z" fill="#00254d" stroke="#00254d"></path><path d="M167.7 0L98.5 93.7L236.9 76.7Z" fill="#00357f" stroke="#00357f"></path><path d="M98.5 93.7L72.2 120.3L133.5 168.3Z" fill="#00306e" stroke="#00306e"></path><path d="M50.2 227.7L0 318.3L38.2 339.3Z" fill="#1b44c2" stroke="#1b44c2"></path><path d="M38.2 339.3L0 416L66.2 409Z" fill="#003da1" stroke="#003da1"></path><path d="M0 226.7L0 318.3L50.2 227.7Z" fill="#1b44c2" stroke="#1b44c2"></path><path d="M0 318.3L0 416L38.2 339.3Z" fill="#00254d" stroke="#00254d"></path><path d="M767.5 86.7L698.3 0L727.3 93.7Z" fill="#0941b1" stroke="#0941b1"></path><path d="M50.2 503.3L61.2 600L109.5 512.3Z" fill="#00306e" stroke="#00306e"></path><path d="M0 515.3L61.2 600L50.2 503.3Z" fill="#001f3c" stroke="#001f3c"></path><path d="M98.5 93.7L84.2 46.7L72.2 120.3Z" fill="#00182b" stroke="#00182b"></path><path d="M283.9 0L167.7 0L234.7 42.7Z" fill="#001f3c" stroke="#001f3c"></path><path d="M0 416L0 484.7L45.2 427.7Z" fill="#00254d" stroke="#00254d"></path><path d="M0 178L0 226.7L50.2 227.7Z" fill="#003da1" stroke="#003da1"></path><path d="M825.8 168L846.8 148.3L774.5 97.3Z" fill="#0941b1" stroke="#0941b1"></path><path d="M767.5 86.7L793.5 0L698.3 0Z" fill="#00306e" stroke="#00306e"></path><path d="M900 202L825.8 168L845.8 270.7Z" fill="#0941b1" stroke="#0941b1"></path><path d="M840.8 467.7L900 417L867.8 380Z" fill="#002b5d" stroke="#002b5d"></path><path d="M867.8 380L900 293.3L845.8 270.7Z" fill="#00182b" stroke="#00182b"></path><path d="M900 503.7L900 417L840.8 467.7Z" fill="#001f3c" stroke="#001f3c"></path><path d="M0 484.7L0 515.3L50.2 503.3Z" fill="#00306e" stroke="#00306e"></path><path d="M900 417L900 293.3L867.8 380Z" fill="#00254d" stroke="#00254d"></path><path d="M900 293.3L900 269.7L845.8 270.7Z" fill="#00254d" stroke="#00254d"></path><path d="M900 66.7L815.8 73.7L846.8 148.3Z" fill="#001f3c" stroke="#001f3c"></path><path d="M846.8 148.3L815.8 73.7L774.5 97.3Z" fill="#00357f" stroke="#00357f"></path><path d="M167.7 0L84.2 46.7L98.5 93.7Z" fill="#1b44c2" stroke="#1b44c2"></path><path d="M72.2 120.3L0 178L50.2 227.7Z" fill="#002b5d" stroke="#002b5d"></path><path d="M0 118.3L0 178L72.2 120.3Z" fill="#001f3c" stroke="#001f3c"></path><path d="M900 540.3L900 503.7L840.8 467.7Z" fill="#00357f" stroke="#00357f"></path><path d="M744.5 600L858.8 600L803.8 566.3Z" fill="#00254d" stroke="#00254d"></path><path d="M803.8 566.3L900 540.3L840.8 467.7Z" fill="#002b5d" stroke="#002b5d"></path><path d="M167.7 0L116.5 0L84.2 46.7Z" fill="#1b44c2" stroke="#1b44c2"></path><path d="M900 269.7L900 202L845.8 270.7Z" fill="#00254d" stroke="#00254d"></path><path d="M858.8 600L900 540.3L803.8 566.3Z" fill="#0941b1" stroke="#0941b1"></path><path d="M0 515.3L0 600L61.2 600Z" fill="#00101c" stroke="#00101c"></path><path d="M0 52.7L72.2 120.3L84.2 46.7Z" fill="#00182b" stroke="#00182b"></path><path d="M0 52.7L0 118.3L72.2 120.3Z" fill="#001f3c" stroke="#001f3c"></path><path d="M828.8 0L793.5 0L815.8 73.7Z" fill="#1b44c2" stroke="#1b44c2"></path><path d="M815.8 73.7L793.5 0L767.5 86.7Z" fill="#00306e" stroke="#00306e"></path><path d="M900 202L900 139.3L846.8 148.3Z" fill="#1b44c2" stroke="#1b44c2"></path><path d="M858.8 600L900 600L900 540.3Z" fill="#00101c" stroke="#00101c"></path><path d="M900 66.7L828.8 0L815.8 73.7Z" fill="#00182b" stroke="#00182b"></path><path d="M116.5 0L43.2 0L84.2 46.7Z" fill="#00182b" stroke="#00182b"></path><path d="M43.2 0L0 52.7L84.2 46.7Z" fill="#001f3c" stroke="#001f3c"></path><path d="M900 139.3L900 66.7L846.8 148.3Z" fill="#1b44c2" stroke="#1b44c2"></path><path d="M43.2 0L0 0L0 52.7Z" fill="#003990" stroke="#003990"></path><path d="M900 66.7L900 0L828.8 0Z" fill="#00306e" stroke="#00306e"></path></g></svg>